<svg width="17" height="10" viewBox="0 0 17 10" fill="none" xmlns="http://www.w3.org/2000/svg">
<g clip-path="url(#clip0_112_12)">
<path d="M0 10V0H7.12913V1.95H2.13874V3.86429H5.30229V5.81429H2.13874V10H0ZM8.60102 10V0H10.5615L14.49 5.47857C14.5395 5.55477 14.6113 5.66905 14.7053 5.82143C14.7994 5.97381 14.8712 6.10714 14.9207 6.22143C14.9058 6.12143 14.8935 5.99286 14.8835 5.83571C14.8787 5.67381 14.8761 5.55238 14.8761 5.47143V0H17V10H15.1212L11.111 4.47857C11.0566 4.40238 10.9824 4.28571 10.8883 4.12857C10.7991 3.97143 10.7274 3.83571 10.6729 3.72143C10.6927 3.84524 10.7026 3.97857 10.7026 4.12143C10.7076 4.25952 10.71 4.37857 10.71 4.47857V10H8.60102Z" fill="url(#paint0_linear_112_12)"/>
</g>
<defs>
<linearGradient id="paint0_linear_112_12" x1="-1.15848" y1="1.32653" x2="7.93234" y2="16.5906" gradientUnits="userSpaceOnUse">
<stop stop-color="#54A2EA"/>
<stop offset="1" stop-color="#199698"/>
</linearGradient>
<clipPath id="clip0_112_12">
<rect width="17" height="10" fill="white"/>
</clipPath>
</defs>
</svg>
